<?xml version="1.0" standalone="no"?>
<!DOCTYPE svg PUBLIC "-//W3C//DTD SVG 20010904//EN"
 "http://www.w3.org/TR/2001/REC-SVG-20010904/DTD/svg10.dtd">
<svg version="1.0" xmlns="http://www.w3.org/2000/svg"
 width="512.000000pt" height="512.000000pt" viewBox="0 0 512.000000 512.000000"
 preserveAspectRatio="xMidYMid meet">

<g transform="translate(0.000000,512.000000) scale(0.100000,-0.100000)"
fill="#fff" stroke="none">
<path d="M4603 5006 c-22 -8 -56 -24 -75 -36 -18 -13 -432 -421 -919 -908
l-887 -885 -4 174 -3 174 -34 63 c-37 69 -80 109 -151 144 -66 32 -196 31
-265 -2 -63 -31 -124 -91 -155 -155 l-25 -50 -3 -615 c-2 -466 0 -626 10 -660
16 -62 96 -142 158 -159 34 -9 193 -11 660 -9 l615 3 51 27 c76 40 107 70 145
140 31 58 34 70 34 148 0 78 -3 90 -34 148 -37 69 -80 109 -151 144 -40 20
-64 23 -219 26 l-174 4 896 897 c599 600 902 910 916 938 67 134 31 305 -82
395 -81 63 -203 85 -304 54z m187 -169 c19 -12 42 -37 53 -54 21 -37 25 -109
7 -145 -7 -12 -448 -460 -981 -993 -872 -873 -969 -973 -969 -1002 0 -17 9
-41 19 -54 19 -24 20 -24 299 -29 264 -5 282 -6 308 -26 53 -39 69 -71 69
-134 0 -63 -16 -95 -69 -134 -27 -21 -39 -21 -632 -24 l-604 -2 -25 25 -25 25
2 604 c3 593 3 605 24 632 39 53 71 69 134 69 63 0 95 -16 134 -69 20 -26 21
-44 26 -308 5 -279 5 -280 29 -299 13 -10 37 -19 54 -19 29 0 129 97 1002 969
533 533 979 974 990 980 36 19 119 13 155 -12z"/>
<path d="M2220 4936 c-527 -79 -984 -309 -1355 -681 -363 -363 -584 -792 -676
-1312 -20 -109 -23 -163 -23 -373 -1 -275 11 -378 69 -606 278 -1086 1287
-1843 2400 -1801 604 24 1140 247 1580 658 181 170 380 441 498 681 140 283
254 724 226 872 -20 106 -89 194 -187 239 -73 33 -189 31 -264 -6 -61 -30
-116 -84 -147 -145 -11 -21 -31 -104 -45 -184 -98 -560 -436 -1026 -928 -1278
-268 -138 -503 -195 -808 -195 -192 0 -261 8 -432 51 -800 199 -1361 950
-1325 1774 17 382 149 734 388 1036 79 99 259 265 371 342 228 155 455 245
737 292 68 12 141 30 163 41 61 31 115 86 145 147 24 48 28 70 28 137 0 101
-32 172 -106 239 -80 72 -169 93 -309 72z m191 -182 c68 -43 88 -150 41 -214
-34 -46 -78 -67 -164 -79 -349 -50 -688 -203 -963 -433 -543 -455 -793 -1186
-639 -1875 130 -585 512 -1069 1044 -1322 534 -253 1130 -254 1658 -1 579 278
977 818 1072 1455 14 92 27 123 70 158 83 71 220 26 250 -81 7 -27 6 -63 -6
-137 -105 -674 -497 -1252 -1086 -1599 -459 -269 -1020 -366 -1545 -265 -672
129 -1239 548 -1566 1159 -102 190 -184 437 -228 687 -19 106 -23 165 -23 348
-1 248 12 351 70 573 221 852 940 1506 1804 1642 41 6 82 13 90 15 31 6 86 -8
121 -31z"/>
</g>
</svg>
