<?xml version="1.0" standalone="no"?>
<!DOCTYPE svg PUBLIC "-//W3C//DTD SVG 20010904//EN"
 "http://www.w3.org/TR/2001/REC-SVG-20010904/DTD/svg10.dtd">
<svg version="1.0" xmlns="http://www.w3.org/2000/svg"
 width="512.000000pt" height="512.000000pt" viewBox="0 0 512.000000 512.000000"
 preserveAspectRatio="xMidYMid meet">
<metadata>
Created by potrace 1.16, written by Peter Selinger 2001-2019
</metadata>
<g transform="translate(0.000000,512.000000) scale(0.100000,-0.100000)"
fill="#fff" stroke="none">
<path d="M420 5106 c-157 -45 -281 -147 -354 -293 -77 -153 -75 -347 5 -505
26 -52 92 -124 403 -438 204 -206 566 -568 804 -804 237 -236 432 -433 432
-439 0 -5 -129 -198 -287 -428 -248 -363 -289 -419 -306 -413 -34 11 -188 7
-252 -6 -33 -6 -102 -32 -154 -57 -75 -36 -108 -59 -170 -121 -389 -388 -483
-980 -235 -1477 25 -49 54 -98 66 -108 22 -19 79 -23 107 -7 10 5 38 55 61
111 93 220 178 299 361 334 302 57 329 69 329 143 0 78 -53 97 -188 67 -37 -8
-116 -24 -177 -35 -147 -28 -221 -65 -311 -155 -39 -38 -85 -94 -101 -123
l-31 -54 -21 64 c-51 156 -67 359 -41 523 37 233 180 488 350 626 143 116 332
137 505 55 167 -79 274 -249 277 -439 1 -93 -9 -132 -59 -231 -27 -54 -33 -75
-28 -102 7 -41 38 -64 85 -64 51 0 72 19 113 102 57 113 69 172 65 323 l-3
130 410 277 c226 152 415 277 420 277 6 1 331 -320 724 -713 l713 -714 497
-191 c273 -105 510 -193 526 -197 78 -15 155 49 155 128 0 27 -61 197 -195
546 l-196 507 -716 717 -717 717 20 23 c11 13 41 46 67 75 39 43 47 59 47 90
-1 46 -17 70 -57 83 -43 16 -72 1 -145 -75 l-63 -66 -257 258 -258 258 893
809 c491 444 904 814 918 821 43 24 95 28 155 10 45 -13 69 -28 114 -73 88
-88 113 -187 68 -270 -13 -23 -252 -294 -533 -603 -891 -983 -815 -895 -815
-940 0 -75 69 -112 132 -71 43 27 1336 1461 1369 1517 113 196 11 471 -217
586 -67 33 -73 34 -184 34 -105 0 -119 -2 -166 -27 -56 -30 -41 -16 -1099
-976 l-760 -690 -810 807 c-871 869 -850 849 -990 886 -71 18 -231 19 -295 1z
m271 -182 c20 -7 54 -23 75 -37 49 -31 314 -285 314 -300 0 -7 -119 -131 -265
-277 l-266 -265 -150 152 c-188 191 -204 220 -204 368 0 87 3 107 27 157 83
177 289 266 469 202z m625 -566 l95 -93 -271 -270 -270 -270 -97 98 -98 97
265 265 c146 146 269 265 273 265 5 0 51 -42 103 -92z m1454 -1455 c674 -676
1340 -1344 1480 -1485 l255 -258 -100 -100 -100 -100 -1235 1234 c-721 721
-1247 1240 -1264 1246 -58 22 -116 -20 -116 -84 l0 -41 1242 -1242 1243 -1243
-103 -102 -102 -103 -1485 1485 -1485 1485 102 102 102 103 127 -125 c119
-118 128 -125 166 -125 60 0 88 36 84 108 -1 16 -42 65 -123 148 l-122 125 99
99 c55 55 102 100 105 100 3 0 556 -552 1230 -1227z m-403 -929 c-11 -11 -751
-504 -756 -504 -3 0 -68 62 -143 138 l-137 137 257 377 257 376 262 -261 c144
-144 261 -262 260 -263z m2387 -1358 c81 -209 145 -380 144 -381 -2 -2 -697
265 -753 289 -5 2 96 110 225 240 129 129 235 234 236 233 2 -1 68 -173 148
-381z"/>
</g>
</svg>
