<svg width="93" height="64" viewBox="0 0 93 64" fill="none" xmlns="http://www.w3.org/2000/svg">
<path d="M40.7551 24.8163C40.7551 31.6082 39.7102 37.4422 37.6204 42.3184C35.5306 47.3687 32.8313 51.4612 29.5224 54.5959C26.2136 57.9048 22.4694 60.2558 18.2898 61.649C13.936 63.2163 9.66937 64 5.48978 64L5.48978 54.8571C10.0177 54.8571 14.2843 53.2898 18.2898 50.1551C22.1211 47.1946 24.385 43.102 25.0816 37.8776C24.5592 38.0517 23.9497 38.2259 23.2531 38.4C22.7306 38.5742 22.1211 38.7483 21.4245 38.9225C20.5537 39.0966 19.5959 39.1837 18.551 39.1837C13.3265 39.1837 8.97278 37.181 5.48978 33.1755C2.00679 29.3442 0.265301 24.8163 0.265301 19.5918C0.2653 14.3674 2.09387 9.75239 5.75102 5.74694C9.23401 1.91565 13.936 6.91199e-06 19.8571 6.39435e-06C26.4748 5.81582e-06 31.6122 2.4381 35.2694 7.31429C38.9265 12.3646 40.7551 18.1986 40.7551 24.8163ZM93 24.8163C93 31.6082 91.9551 37.4422 89.8653 42.3184C87.7755 47.3687 85.0762 51.4612 81.7673 54.5959C78.4585 57.9048 74.7143 60.2558 70.5347 61.649C66.181 63.2163 61.9143 64 57.7347 64L57.7347 54.8571C62.2626 54.8571 66.5292 53.2898 70.5347 50.1551C74.366 47.1946 76.6299 43.102 77.3265 37.8775C76.8041 38.0517 76.1946 38.2258 75.498 38.4C74.9755 38.5742 74.366 38.7483 73.6694 38.9224C72.7986 39.0966 71.8408 39.1837 70.7959 39.1837C65.5714 39.1837 61.2177 37.1809 57.7347 33.1755C54.2517 29.3442 52.5102 24.8163 52.5102 19.5918C52.5102 14.3673 54.3388 9.75239 57.9959 5.74694C61.4789 1.91565 66.1809 2.3446e-06 72.102 1.82696e-06C78.7197 1.24842e-06 83.8571 2.4381 87.5143 7.31429C91.1714 12.3646 93 18.1986 93 24.8163Z" fill="url(#paint0_linear_3_1247)"/>
<defs>
<linearGradient id="paint0_linear_3_1247" x1="46.6327" y1="64" x2="46.6326" y2="4.05356e-06" gradientUnits="userSpaceOnUse">
<stop stop-color="#333F51"/>
<stop offset="1" stop-color="#333F51" stop-opacity="0"/>
</linearGradient>
</defs>
</svg>
