<?xml version="1.0" standalone="no"?>
<!DOCTYPE svg PUBLIC "-//W3C//DTD SVG 20010904//EN"
 "http://www.w3.org/TR/2001/REC-SVG-20010904/DTD/svg10.dtd">
<svg version="1.0" xmlns="http://www.w3.org/2000/svg"
 width="512.000000pt" height="512.000000pt" viewBox="0 0 512.000000 512.000000"
 preserveAspectRatio="xMidYMid meet">
<metadata>
Created by potrace 1.16, written by Peter Selinger 2001-2019
</metadata>
<g transform="translate(0.000000,512.000000) scale(0.100000,-0.100000)"
fill="#FFFFFF" stroke="none">
<path d="M2089 5051 c-393 -86 -702 -400 -784 -796 -34 -167 -15 -413 44 -563
73 -183 198 -350 343 -458 l58 -42 -68 -21 c-38 -11 -77 -30 -87 -41 -28 -31
-25 -88 5 -112 29 -24 57 -22 192 16 162 45 254 58 455 63 249 7 427 -15 632
-77 35 -11 74 -20 88 -20 33 0 73 42 73 78 0 44 -27 67 -103 92 -38 12 -65 25
-60 29 4 4 41 33 81 65 66 54 143 136 183 196 16 24 17 24 80 11 35 -7 65 -14
66 -15 2 -2 -2 -29 -9 -62 -17 -88 -14 -277 6 -354 56 -219 224 -379 446 -426
101 -21 243 -14 325 17 77 29 149 100 194 193 l33 70 20 -25 c74 -92 151 -232
199 -362 47 -128 80 -156 253 -213 216 -71 219 -77 214 -358 -4 -256 9 -240
-281 -332 -97 -31 -192 -66 -210 -78 -17 -12 -63 -69 -102 -126 -122 -185
-308 -353 -529 -480 -43 -25 -88 -57 -98 -70 -12 -17 -35 -116 -73 -315 -30
-159 -55 -293 -55 -297 0 -4 -7 -14 -16 -22 -13 -13 -44 -16 -188 -16 -122 0
-177 4 -188 12 -11 9 -28 71 -52 193 -33 171 -36 181 -67 209 -32 28 -34 29
-118 23 -47 -4 -138 -11 -201 -18 -77 -7 -186 -9 -330 -4 -343 12 -314 14
-349 -19 -32 -31 -35 -40 -75 -254 -13 -67 -27 -126 -30 -130 -4 -4 -87 -8
-184 -10 -136 -2 -181 0 -195 10 -14 11 -31 78 -73 298 -31 157 -62 295 -69
307 -8 12 -54 45 -101 73 -345 202 -552 488 -639 880 -25 116 -31 408 -11 546
60 406 270 726 618 940 26 16 52 41 58 55 23 54 -14 109 -74 109 -35 0 -187
-99 -290 -188 -228 -198 -395 -490 -453 -792 -9 -50 -20 -90 -24 -90 -3 0 -9
27 -12 61 -10 108 -83 221 -172 264 -22 10 -65 21 -96 23 -67 5 -119 -18 -167
-73 -139 -158 -65 -318 180 -385 l60 -16 -46 -46 c-58 -58 -135 -97 -216 -108
-78 -11 -100 -30 -100 -86 0 -79 66 -102 195 -69 32 9 81 28 109 43 62 34 164
133 201 195 46 80 52 68 58 -136 6 -196 25 -316 73 -461 105 -317 312 -581
599 -764 44 -28 88 -57 98 -64 13 -10 30 -78 71 -290 30 -152 59 -284 64 -295
16 -29 64 -71 95 -82 38 -15 456 -15 494 0 34 12 80 55 98 89 7 14 25 91 40
172 l28 148 26 -8 c44 -12 549 -7 650 6 51 7 95 11 98 9 2 -2 17 -72 33 -155
32 -169 44 -199 97 -239 l36 -28 238 -3 c359 -5 342 -21 423 407 30 161 56
294 58 295 2 1 37 22 78 46 212 122 413 307 536 490 l70 105 212 70 c236 78
271 100 318 200 23 48 24 58 24 295 0 236 -1 247 -24 295 -41 89 -93 126 -254
179 -78 26 -149 54 -157 62 -8 8 -22 38 -32 67 -49 143 -156 328 -262 452 -28
32 -51 65 -51 72 0 7 7 57 17 111 23 139 23 405 0 491 -23 86 -51 127 -100
153 -36 18 -53 20 -132 15 -135 -8 -390 -91 -658 -216 l-88 -40 -69 15 -69 16
20 51 c33 82 60 215 62 295 2 66 0 75 -22 93 -13 10 -36 19 -53 19 -36 0 -78
-40 -78 -73 0 -56 -33 -204 -61 -277 -77 -202 -248 -383 -443 -470 -54 -24
-68 -26 -121 -19 -79 10 -381 10 -470 0 -59 -6 -77 -5 -114 12 -177 78 -340
234 -429 412 -98 197 -113 433 -41 649 73 220 224 393 434 497 148 73 200 84
390 84 148 -1 167 -3 245 -29 198 -65 366 -194 471 -361 66 -106 76 -115 119
-115 30 0 43 6 59 26 28 36 26 56 -9 123 -124 231 -345 406 -617 487 -121 36
-363 44 -494 15z m2112 -1398 c20 -68 17 -322 -5 -443 -32 -179 -88 -333 -144
-393 -71 -75 -276 -75 -415 0 -69 38 -151 130 -176 199 -35 93 -45 189 -31
304 15 121 28 141 119 182 122 55 305 126 406 156 125 38 130 39 186 41 l46 1
14 -47z m-3857 -1148 c32 -32 66 -108 54 -120 -9 -9 -134 34 -162 56 -32 25
-32 30 0 68 34 41 65 40 108 -4z"/>
<path d="M2317 4587 c-9 -7 -17 -23 -19 -37 -2 -20 -10 -26 -45 -32 -85 -14
-158 -69 -187 -140 -20 -48 -20 -148 0 -196 8 -20 27 -50 42 -66 26 -28 153
-96 179 -96 10 0 13 -35 13 -151 l0 -151 -32 6 c-32 6 -92 39 -140 77 -36 30
-73 19 -95 -26 -15 -32 -15 -38 0 -69 29 -62 111 -108 217 -122 46 -6 49 -8
52 -38 3 -28 6 -31 38 -31 32 0 35 3 40 35 4 30 9 35 43 42 85 18 156 80 183
160 20 61 15 187 -9 234 -26 50 -87 102 -154 131 l-63 27 0 128 c0 96 3 128
13 128 6 0 39 -12 72 -25 76 -31 89 -31 114 1 57 72 -1 130 -152 150 -40 6
-46 10 -49 32 -4 30 -39 46 -61 29z m-17 -308 l0 -110 -41 23 c-82 46 -92 137
-21 181 57 35 62 28 62 -94z m161 -364 c30 -47 25 -108 -11 -148 -17 -19 -39
-37 -50 -40 -19 -5 -20 0 -20 125 l0 129 31 -18 c18 -10 40 -31 50 -48z"/>
<path d="M3836 2399 c-47 -37 -32 -145 30 -217 54 -63 105 -86 189 -86 80 0
129 20 182 76 42 43 63 96 63 157 0 42 -4 53 -26 70 -15 12 -37 21 -49 21 -36
0 -73 -36 -80 -78 -10 -57 -46 -92 -94 -92 -26 0 -81 47 -81 69 0 83 -74 127
-134 80z"/>
</g>
</svg>
