<?xml version="1.0" standalone="no"?>
<!DOCTYPE svg PUBLIC "-//W3C//DTD SVG 20010904//EN"
 "http://www.w3.org/TR/2001/REC-SVG-20010904/DTD/svg10.dtd">
<svg version="1.0" xmlns="http://www.w3.org/2000/svg"
 width="512.000000pt" height="512.000000pt" viewBox="0 0 512.000000 512.000000"
 preserveAspectRatio="xMidYMid meet">

<g transform="translate(0.000000,512.000000) scale(0.100000,-0.100000)"
fill="#FFFFFF" stroke="none">
<path d="M4592 5103 c-68 -33 -101 -127 -68 -194 9 -18 13 -36 9 -40 -5 -4
-1002 -492 -2218 -1084 -1215 -592 -2220 -1083 -2233 -1091 -60 -40 -81 -138
-42 -202 25 -41 99 -76 144 -69 17 3 933 445 2036 982 2487 1212 2452 1195
2459 1195 3 -1 15 -19 26 -42 28 -56 74 -80 143 -75 76 5 104 38 193 227 62
130 74 163 74 207 0 58 -22 97 -71 125 -28 15 -345 78 -395 78 -13 0 -39 -8
-57 -17z"/>
<path d="M4185 3996 c-41 -18 -83 -69 -90 -109 -3 -18 -4 -877 -3 -1909 l3
-1877 21 -27 c11 -15 33 -37 48 -48 26 -20 41 -21 431 -24 391 -3 406 -2 445
18 26 13 47 34 60 60 20 39 20 50 18 1934 l-3 1895 -21 27 c-11 15 -33 37 -48
48 -27 20 -41 21 -429 23 -319 2 -408 0 -432 -11z m635 -1991 l0 -1705 -215 0
-215 0 0 1705 0 1705 215 0 215 0 0 -1705z"/>
<path d="M2836 3390 c-16 -5 -40 -19 -53 -32 -56 -52 -53 53 -53 -1658 0
-1751 -5 -1624 64 -1673 31 -22 35 -22 433 -25 449 -3 448 -3 499 64 l29 37 0
1591 c0 1582 0 1591 -20 1626 -12 19 -36 43 -55 55 -33 19 -53 20 -425 22
-214 1 -403 -2 -419 -7z m622 -1693 l2 -1397 -215 0 -215 0 0 1400 0 1400 213
-2 212 -3 3 -1398z"/>
<path d="M1465 2765 c-49 -17 -81 -53 -95 -104 -7 -27 -9 -443 -8 -1299 3
-1255 3 -1261 24 -1288 11 -15 33 -37 48 -48 27 -20 39 -21 444 -21 415 0 417
0 448 22 68 49 64 -45 64 1366 l0 1274 -22 33 c-13 18 -36 43 -51 54 -28 20
-40 21 -420 23 -320 2 -399 0 -432 -12z m625 -1375 l0 -1090 -215 0 -215 0 0
1083 c0 596 3 1087 7 1090 3 4 100 7 215 7 l208 0 0 -1090z"/>
<path d="M106 2170 c-37 -12 -75 -47 -92 -87 -12 -27 -14 -202 -14 -998 0
-929 1 -967 19 -1003 11 -22 35 -46 59 -60 l41 -23 405 3 c391 3 406 4 432 24
15 11 37 33 48 48 21 27 21 33 21 1014 l0 987 -24 34 c-49 69 -61 71 -486 70
-209 0 -393 -5 -409 -9z m624 -1080 l0 -790 -215 0 -215 0 0 790 0 790 215 0
215 0 0 -790z"/>
</g>
</svg>
